<?xml version="1.0" standalone="no"?>
<!DOCTYPE svg PUBLIC "-//W3C//DTD SVG 20010904//EN"
 "http://www.w3.org/TR/2001/REC-SVG-20010904/DTD/svg10.dtd">
<svg version="1.0" xmlns="http://www.w3.org/2000/svg"
 width="558.000000pt" height="558.000000pt" viewBox="0 0 558.000000 558.000000"
 preserveAspectRatio="xMidYMid meet">
<metadata>
Created by potrace 1.14, written by Peter Selinger 2001-2017
</metadata>
<g transform="translate(0.000000,558.000000) scale(0.100000,-0.100000)"
fill="#000000" stroke="none">
<path d="M1015 3829 c-49 -4 -206 -7 -347 -8 l-258 -1 0 -84 0 -83 62 -13 c35
-6 84 -16 111 -22 l47 -10 -2 -841 -3 -842 -112 -14 -113 -14 0 -84 0 -83 450
0 450 0 0 83 0 84 -130 13 -130 12 0 354 0 354 152 0 152 0 50 -52 c59 -61
120 -180 225 -436 98 -239 143 -332 180 -375 l33 -37 644 0 644 0 0 83 0 83
-137 13 c-76 7 -141 16 -144 19 -4 4 8 180 27 392 18 212 52 598 74 859 22
261 42 476 43 478 2 2 32 -97 66 -219 51 -179 414 -1374 477 -1571 l16 -48
151 3 151 3 193 670 c106 369 216 765 244 880 68 279 71 292 75 280 5 -12 174
-1680 174 -1710 0 -21 -8 -23 -120 -35 l-120 -13 0 -83 0 -84 445 0 445 0 0
84 0 84 -104 12 c-57 7 -108 15 -113 19 -10 6 -236 1671 -228 1679 3 3 136 22
303 42 1 0 2 38 2 85 l0 85 -437 0 -438 0 -168 -613 c-92 -336 -181 -679 -197
-761 -17 -82 -32 -151 -34 -153 -2 -2 -22 74 -45 169 -23 95 -115 439 -205
763 l-163 590 -442 3 -441 2 0 -84 c0 -98 -15 -88 160 -107 63 -6 122 -15 130
-18 14 -5 3 -110 -87 -841 -56 -459 -102 -838 -103 -841 0 -6 -188 -29 -243
-29 -45 0 -102 27 -139 67 -15 15 -70 111 -123 213 -168 321 -243 429 -342
487 l-44 26 73 35 c106 51 202 150 256 262 22 47 46 110 53 140 17 68 17 246
1 318 -51 224 -224 345 -546 381 -104 12 -359 12 -501 0z m409 -185 c67 -21
137 -78 166 -135 49 -96 63 -265 34 -406 -29 -139 -84 -222 -182 -270 -56 -27
-61 -28 -227 -28 l-170 0 0 425 0 425 55 7 c96 11 260 2 324 -18z"/>
</g>
</svg>
