<?xml version="1.0" encoding="utf-8"?>
<!-- Generator: Adobe Illustrator 26.0.2, SVG Export Plug-In . SVG Version: 6.00 Build 0)  -->
<svg version="1.1" xmlns="http://www.w3.org/2000/svg" xmlns:xlink="http://www.w3.org/1999/xlink" x="0px" y="0px"
	 viewBox="0 0 288 560" style="enable-background:new 0 0 288 560;" xml:space="preserve">
<style type="text/css">
	.st0{display:none;}
	.st1{display:inline;fill:#E7E8D1;}
	.st2{fill:#B85042;}
</style>
<g id="Layer_3" class="st0">
	<rect x="-3.31" y="35.99" class="st1" width="288" height="183.24"/>
</g>
<g id="Layer_1">
	<g>
		<path class="st2" d="M49.56,130.69l0.02-0.26l0.57-0.18c0.36-0.12,0.61-0.29,0.73-0.49c0.12-0.2,0.2-0.49,0.23-0.86l1.21-13.8
			c0.03-0.35,0.01-0.63-0.07-0.83c-0.08-0.2-0.28-0.36-0.6-0.49l-0.59-0.24l0.02-0.26h7.55c2.08,0,3.63,0.39,4.67,1.17
			c1.04,0.78,1.5,1.87,1.38,3.26c-0.07,0.77-0.43,1.55-1.07,2.32c-0.65,0.77-1.62,1.37-2.9,1.79l3.03,7.29
			c0.13,0.3,0.29,0.54,0.48,0.73c0.19,0.19,0.44,0.35,0.76,0.49l0.33,0.13l-0.02,0.24h-4.72l-3.18-8.31H55.6l-0.57,6.52
			c-0.03,0.33,0,0.61,0.09,0.82c0.09,0.21,0.29,0.37,0.62,0.48l0.61,0.24l-0.02,0.26H49.56z M55.64,121.84h1.27
			c1.27,0,2.21-0.34,2.83-1.02c0.62-0.68,0.99-1.68,1.11-3.02c0.12-1.35-0.06-2.36-0.53-3.02c-0.47-0.66-1.33-0.99-2.58-0.99h-1.4
			L55.64,121.84z"/>
		<path class="st2" d="M72.31,131.08c-1.34,0-2.47-0.28-3.41-0.83c-0.94-0.55-1.63-1.34-2.08-2.36c-0.45-1.02-0.61-2.22-0.49-3.59
			c0.12-1.37,0.51-2.56,1.17-3.56s1.51-1.78,2.55-2.32c1.04-0.55,2.19-0.82,3.44-0.82s2.34,0.27,3.28,0.81
			c0.94,0.54,1.65,1.31,2.13,2.31s0.67,2.2,0.54,3.59c-0.12,1.39-0.5,2.59-1.12,3.6c-0.63,1.01-1.45,1.79-2.48,2.35
			S73.65,131.08,72.31,131.08z M72.35,130.55c0.62,0,1.12-0.18,1.52-0.53c0.4-0.35,0.72-0.98,0.97-1.87c0.25-0.9,0.44-2.16,0.58-3.8
			c0.14-1.65,0.17-2.93,0.08-3.83c-0.09-0.9-0.3-1.52-0.64-1.87c-0.34-0.35-0.82-0.53-1.43-0.53c-0.62,0-1.13,0.18-1.54,0.53
			c-0.41,0.35-0.74,0.98-0.98,1.87c-0.25,0.9-0.44,2.17-0.59,3.83c-0.14,1.64-0.17,2.9-0.08,3.8c0.09,0.9,0.31,1.52,0.65,1.87
			S71.74,130.55,72.35,130.55z"/>
		<path class="st2" d="M80.05,130.69l0.02-0.26l0.38-0.11c0.63-0.18,0.98-0.61,1.04-1.29l0.72-8.26c0.03-0.39,0-0.67-0.11-0.86
			c-0.11-0.18-0.33-0.31-0.68-0.38l-0.39-0.11l0.02-0.26l4.65-1.53l0.24,0.26l0.07,1.58c0.66-0.54,1.4-0.99,2.2-1.35
			c0.81-0.35,1.59-0.53,2.34-0.53c1.16,0,2.03,0.32,2.6,0.95c0.57,0.63,0.8,1.6,0.68,2.9l-0.67,7.6c-0.06,0.69,0.24,1.12,0.89,1.29
			l0.23,0.08l-0.02,0.26h-6.23l0.02-0.26l0.35-0.11c0.63-0.19,0.98-0.62,1.04-1.29l0.74-8.42c0.1-1.13-0.42-1.69-1.54-1.69
			c-0.77,0-1.65,0.39-2.64,1.16l-0.79,8.97c-0.06,0.69,0.21,1.12,0.81,1.29l0.23,0.08l-0.02,0.26H80.05z"/>
		<path class="st2" d="M95.36,130.69l0.02-0.26l0.38-0.11c0.36-0.11,0.62-0.26,0.77-0.48c0.15-0.21,0.24-0.49,0.27-0.84l0.72-8.26
			c0.03-0.37-0.01-0.65-0.12-0.83c-0.12-0.18-0.35-0.31-0.69-0.38l-0.36-0.08l0.02-0.26l4.97-1.56l0.24,0.26l-0.41,3.75l-0.65,7.39
			c-0.03,0.35,0.01,0.63,0.12,0.84c0.11,0.21,0.33,0.37,0.66,0.48l0.26,0.08l-0.02,0.26H95.36z M99.74,116.22
			c-0.6,0-1.09-0.19-1.47-0.57c-0.38-0.38-0.55-0.86-0.49-1.44c0.05-0.6,0.3-1.08,0.75-1.45c0.45-0.37,0.97-0.55,1.57-0.55
			c0.6,0,1.08,0.18,1.46,0.55c0.37,0.37,0.53,0.85,0.48,1.45c-0.05,0.58-0.29,1.06-0.73,1.44
			C100.86,116.03,100.34,116.22,99.74,116.22z"/>
		<path class="st2" d="M102.7,130.69l0.02-0.26l0.38-0.11c0.63-0.18,0.98-0.61,1.04-1.29l0.72-8.26c0.03-0.39,0-0.67-0.11-0.86
			c-0.11-0.18-0.33-0.31-0.68-0.38l-0.39-0.11l0.02-0.26l4.65-1.53l0.24,0.26l0.07,1.58c0.66-0.54,1.4-0.99,2.2-1.35
			c0.81-0.35,1.59-0.53,2.34-0.53c1.16,0,2.03,0.32,2.6,0.95c0.57,0.63,0.8,1.6,0.68,2.9l-0.67,7.6c-0.06,0.69,0.24,1.12,0.89,1.29
			l0.23,0.08l-0.02,0.26h-6.23l0.02-0.26l0.35-0.11c0.63-0.19,0.98-0.62,1.04-1.29l0.74-8.42c0.1-1.13-0.42-1.69-1.54-1.69
			c-0.77,0-1.65,0.39-2.64,1.16l-0.79,8.97c-0.06,0.69,0.21,1.12,0.81,1.29l0.23,0.08l-0.02,0.26H102.7z"/>
		<path class="st2" d="M123.71,130.69l0.02-0.26l0.54-0.18c0.62-0.19,0.96-0.69,1.03-1.5l1.18-13.51c0.03-0.35,0.02-0.63-0.04-0.84
			c-0.06-0.21-0.25-0.39-0.57-0.53l-0.66-0.32l0.02-0.26h5.09l3.77,12.77l5.71-12.77h5.2l-0.02,0.26l-0.44,0.16
			c-0.34,0.12-0.59,0.29-0.73,0.51c-0.14,0.22-0.23,0.51-0.26,0.86l-1.21,13.8c-0.03,0.35-0.01,0.62,0.06,0.82
			c0.07,0.19,0.27,0.36,0.59,0.5l0.51,0.24l-0.02,0.26h-6.57l0.02-0.26l0.57-0.24c0.35-0.14,0.57-0.31,0.68-0.5
			c0.1-0.19,0.17-0.47,0.2-0.82l0.52-5.94l0.71-7.55l-6.86,15.31h-1.32l-4.43-15.12l-0.5,6.57l-0.58,6.65
			c-0.03,0.39,0,0.7,0.09,0.94c0.09,0.24,0.3,0.41,0.63,0.51l0.56,0.18l-0.02,0.26H123.71z"/>
		<path class="st2" d="M150.41,131.08c-1.2,0-2.26-0.26-3.19-0.78c-0.93-0.52-1.64-1.28-2.12-2.27c-0.49-0.99-0.66-2.21-0.54-3.66
			c0.12-1.43,0.54-2.64,1.26-3.66c0.71-1.01,1.62-1.79,2.71-2.32c1.09-0.54,2.26-0.81,3.51-0.81c1.02,0,1.87,0.17,2.54,0.5
			c0.67,0.33,1.17,0.77,1.5,1.31c0.32,0.54,0.46,1.1,0.41,1.68c-0.04,0.49-0.23,0.88-0.55,1.15c-0.32,0.27-0.72,0.41-1.2,0.41
			c-0.51,0-0.91-0.19-1.19-0.55c-0.29-0.37-0.43-0.85-0.43-1.45c0.02-0.39,0.05-0.72,0.11-0.99s0.08-0.55,0.07-0.83
			c-0.04-0.3-0.14-0.5-0.28-0.59c-0.14-0.1-0.34-0.15-0.61-0.15c-1.07,0-1.95,0.47-2.62,1.4c-0.67,0.93-1.1,2.42-1.27,4.46
			c-0.16,1.78,0.05,3.14,0.63,4.08c0.58,0.94,1.55,1.41,2.93,1.41c0.83,0,1.51-0.15,2.05-0.45c0.54-0.3,1.07-0.75,1.6-1.35
			l0.25,0.21c-0.53,1.04-1.28,1.84-2.24,2.4C152.77,130.8,151.66,131.08,150.41,131.08z"/>
		<path class="st2" d="M166.03,131.16c-1.71,0-3.22-0.35-4.54-1.04c-1.32-0.69-2.33-1.73-3.01-3.1c-0.69-1.37-0.95-3.05-0.77-5.04
			c0.13-1.51,0.49-2.84,1.09-3.99c0.59-1.14,1.35-2.1,2.27-2.88c0.92-0.77,1.96-1.35,3.11-1.74c1.15-0.39,2.35-0.58,3.6-0.58
			c1,0,1.92,0.11,2.74,0.34c0.82,0.23,1.59,0.55,2.29,0.95l-0.18,3.25h-0.26l-1.13-2.11c-0.15-0.33-0.31-0.64-0.5-0.91
			c-0.19-0.27-0.43-0.48-0.74-0.62c-0.25-0.12-0.5-0.22-0.75-0.28c-0.25-0.06-0.57-0.09-0.96-0.09c-1.02,0-1.97,0.27-2.86,0.82
			c-0.88,0.55-1.63,1.45-2.24,2.71c-0.61,1.26-1.01,2.98-1.2,5.16c-0.19,2.16-0.1,3.88,0.26,5.13c0.37,1.26,0.93,2.16,1.7,2.69
			c0.77,0.54,1.67,0.81,2.69,0.81c0.56,0,1.02-0.04,1.36-0.12c0.34-0.08,0.69-0.2,1.03-0.36c0.35-0.14,0.62-0.35,0.82-0.62
			s0.38-0.57,0.55-0.88l1.39-2.59h0.26l-0.41,3.77c-0.77,0.39-1.63,0.7-2.56,0.95C168.13,131.04,167.12,131.16,166.03,131.16z"/>
		<path class="st2" d="M179.5,131.08c-1.34,0-2.47-0.28-3.41-0.83s-1.63-1.34-2.08-2.36c-0.45-1.02-0.61-2.22-0.49-3.59
			c0.12-1.37,0.51-2.56,1.17-3.56c0.66-1,1.51-1.78,2.55-2.32c1.04-0.55,2.19-0.82,3.44-0.82c1.25,0,2.34,0.27,3.28,0.81
			c0.94,0.54,1.65,1.31,2.13,2.31c0.48,1,0.67,2.2,0.54,3.59c-0.12,1.39-0.5,2.59-1.12,3.6c-0.63,1.01-1.45,1.79-2.48,2.35
			S180.83,131.08,179.5,131.08z M179.54,130.55c0.62,0,1.12-0.18,1.52-0.53c0.4-0.35,0.72-0.98,0.97-1.87
			c0.25-0.9,0.44-2.16,0.58-3.8c0.14-1.65,0.17-2.93,0.08-3.83c-0.09-0.9-0.3-1.52-0.64-1.87c-0.34-0.35-0.82-0.53-1.43-0.53
			c-0.62,0-1.13,0.18-1.54,0.53c-0.41,0.35-0.74,0.98-0.98,1.87c-0.25,0.9-0.44,2.17-0.59,3.83c-0.14,1.64-0.17,2.9-0.08,3.8
			c0.09,0.9,0.31,1.52,0.65,1.87C178.44,130.38,178.93,130.55,179.54,130.55z"/>
		<path class="st2" d="M191.62,131.03l-4.43-0.34l0.02-0.26l0.27-0.05c0.7-0.16,1.08-0.6,1.14-1.32l1.24-14.12
			c0.03-0.37,0-0.65-0.1-0.84c-0.1-0.19-0.32-0.33-0.67-0.4l-0.36-0.11l0.02-0.26l4.8-1.13l0.3,0.24l-0.43,3.72l-0.23,2.67
			c0.62-0.4,1.28-0.71,1.98-0.91c0.7-0.2,1.41-0.3,2.11-0.3c1,0,1.87,0.23,2.6,0.7c0.73,0.47,1.28,1.19,1.65,2.16
			c0.36,0.98,0.48,2.23,0.34,3.76c-0.13,1.53-0.5,2.8-1.09,3.81c-0.59,1.01-1.33,1.77-2.21,2.28s-1.82,0.77-2.82,0.77
			c-0.65,0-1.3-0.09-1.94-0.26c-0.64-0.18-1.21-0.42-1.69-0.74L191.62,131.03z M194.51,130.18c0.56,0,1.07-0.18,1.52-0.53
			c0.45-0.35,0.84-0.95,1.16-1.81c0.32-0.85,0.55-2.03,0.68-3.52c0.13-1.5,0.12-2.65-0.04-3.46c-0.16-0.81-0.43-1.37-0.82-1.69
			c-0.39-0.32-0.87-0.48-1.45-0.48c-0.83,0-1.61,0.23-2.36,0.69l-0.89,10.14c0.32,0.21,0.65,0.37,0.99,0.49
			C193.66,130.13,194.06,130.18,194.51,130.18z"/>
		<path class="st2" d="M206.85,131.03l-4.43-0.34l0.02-0.26l0.27-0.05c0.7-0.16,1.08-0.6,1.14-1.32l1.24-14.12
			c0.03-0.37,0-0.65-0.1-0.84c-0.1-0.19-0.32-0.33-0.66-0.4l-0.36-0.11l0.02-0.26l4.8-1.13l0.3,0.24l-0.43,3.72l-0.23,2.67
			c0.62-0.4,1.27-0.71,1.98-0.91c0.7-0.2,1.41-0.3,2.11-0.3c1,0,1.87,0.23,2.6,0.7c0.73,0.47,1.28,1.19,1.64,2.16
			c0.36,0.98,0.48,2.23,0.34,3.76c-0.13,1.53-0.5,2.8-1.09,3.81c-0.59,1.01-1.33,1.77-2.21,2.28s-1.82,0.77-2.82,0.77
			c-0.65,0-1.3-0.09-1.94-0.26s-1.21-0.42-1.69-0.74L206.85,131.03z M209.74,130.18c0.56,0,1.07-0.18,1.52-0.53
			c0.45-0.35,0.84-0.95,1.16-1.81c0.32-0.85,0.55-2.03,0.68-3.52c0.13-1.5,0.12-2.65-0.04-3.46c-0.16-0.81-0.43-1.37-0.82-1.69
			c-0.39-0.32-0.87-0.48-1.45-0.48c-0.83,0-1.61,0.23-2.36,0.69l-0.89,10.14c0.32,0.21,0.65,0.37,0.99,0.49
			C208.89,130.13,209.29,130.18,209.74,130.18z"/>
	</g>
</g>
<g id="Layer_2">
</g>
</svg>
